<svg id="Icons" viewBox="0 0 60 60" xmlns="http://www.w3.org/2000/svg"><path d="m57.373 31h-6.037l2.461-18.884c.111-.891-.403-1.718-1.252-2.011-.847-.292-1.764.039-2.17.728l-5.024 6.753c-2.462-10.172-11.685-17.586-22.351-17.586-12.683 0-23 10.317-23 23s10.317 23 23 23c6.209 0 12.201-2.549 16.518-7h1.146l-2.461 18.884c-.111.891.403 1.718 1.252 2.011.21.072.424.106.634.106.637 0 1.23-.316 1.536-.834l17.998-24.191c.493-.821.506-1.81.034-2.644s-1.326-1.332-2.284-1.332zm-34.373 13c-11.579 0-21-9.421-21-21s9.421-21 21-21c10.324 0 19.16 7.608 20.737 17.755l-1.78 2.393c-.45-10.08-8.768-18.148-18.957-18.148-10.477 0-19 8.523-19 19s8.523 19 19 19c3.806 0 7.44-1.127 10.566-3.243.329.146.682.243 1.061.243h1.969c-3.775 3.198-8.609 5-13.596 5zm9.377-8.976c-.419.698-.469 1.511-.193 2.253-2.734 1.778-5.887 2.723-9.184 2.723-9.374 0-17-7.626-17-17s7.626-17 17-17 17 7.626 17 17c0 .653-.044 1.301-.118 1.937l-7.505 10.088zm25.587-1.161-17.716 23.805 2.546-19.539c.037-.285-.05-.572-.24-.789-.189-.216-.463-.34-.751-.34h-7.176c-.329 0-.489-.222-.544-.317-.054-.095-.16-.347-.047-.546l17.716-23.805-2.546 19.539c-.037.285.05.572.24.789.189.216.463.34.751.34h7.176c.329 0 .489.222.544.317.054.095.16.347.047.546z"/><path d="m24 22.281v-8.202c2.721.411 4.107 2.385 4.168 2.475.305.458.926.582 1.387.277.46-.307.584-.927.277-1.387-.086-.13-2.016-2.945-5.832-3.383v-1.063c0-.553-.447-1-1-1s-1 .447-1 1v1.068c-3.386.418-6 2.915-6 5.932 0 3.452 3.057 4.72 6 5.719v8.202c-2.717-.411-4.103-2.379-4.171-2.479-.307-.456-.924-.579-1.384-.273-.46.307-.584.927-.277 1.387.086.13 2.016 2.945 5.832 3.383v1.063c0 .553.447 1 1 1s1-.447 1-1v-1.068c3.386-.418 6-2.915 6-5.932 0-3.452-3.057-4.72-6-5.719zm-6-4.281c0-1.932 1.721-3.547 4-3.919v7.515c-2.512-.906-4-1.771-4-3.596zm6 13.919v-7.515c2.512.906 4 1.771 4 3.596 0 1.932-1.721 3.547-4 3.919z"/></svg>