<?xml version="1.0" encoding="UTF-8" standalone="no"?>
<!-- Created with Inkscape (http://www.inkscape.org/) -->

<svg
   width="210mm"
   height="297mm"
   viewBox="0 0 210 297"
   version="1.1"
   id="svg5"
   inkscape:version="1.1.1 (3bf5ae0d25, 2021-09-20)"
   sodipodi:docname="icon.svg"
   xmlns:inkscape="http://www.inkscape.org/namespaces/inkscape"
   xmlns:sodipodi="http://sodipodi.sourceforge.net/DTD/sodipodi-0.dtd"
   xmlns="http://www.w3.org/2000/svg"
   xmlns:svg="http://www.w3.org/2000/svg">
  <sodipodi:namedview
     id="namedview7"
     pagecolor="#ffffff"
     bordercolor="#cccccc"
     borderopacity="1"
     inkscape:pageshadow="0"
     inkscape:pageopacity="1"
     inkscape:pagecheckerboard="0"
     inkscape:document-units="mm"
     showgrid="false"
     inkscape:zoom="0.77771465"
     inkscape:cx="25.716373"
     inkscape:cy="631.33696"
     inkscape:window-width="3840"
     inkscape:window-height="2066"
     inkscape:window-x="-11"
     inkscape:window-y="-11"
     inkscape:window-maximized="1"
     inkscape:current-layer="layer1" />
  <defs
     id="defs2">
    <inkscape:path-effect
       effect="simplify"
       id="path-effect1376"
       is_visible="true"
       lpeversion="1"
       steps="1"
       threshold="0.000408163"
       smooth_angles="360"
       helper_size="0"
       simplify_individual_paths="false"
       simplify_just_coalesce="false" />
    <inkscape:path-effect
       effect="simplify"
       id="path-effect1372"
       is_visible="true"
       lpeversion="1"
       steps="1"
       threshold="0.000408163"
       smooth_angles="360"
       helper_size="0"
       simplify_individual_paths="false"
       simplify_just_coalesce="false" />
    <inkscape:path-effect
       effect="simplify"
       id="path-effect1368"
       is_visible="true"
       lpeversion="1"
       steps="1"
       threshold="0.000408163"
       smooth_angles="360"
       helper_size="0"
       simplify_individual_paths="false"
       simplify_just_coalesce="false" />
    <inkscape:path-effect
       effect="simplify"
       id="path-effect1364"
       is_visible="true"
       lpeversion="1"
       steps="1"
       threshold="0.000408163"
       smooth_angles="360"
       helper_size="0"
       simplify_individual_paths="false"
       simplify_just_coalesce="false" />
    <inkscape:path-effect
       effect="simplify"
       id="path-effect1360"
       is_visible="true"
       lpeversion="1"
       steps="1"
       threshold="0.000408163"
       smooth_angles="360"
       helper_size="0"
       simplify_individual_paths="false"
       simplify_just_coalesce="false" />
    <inkscape:path-effect
       effect="simplify"
       id="path-effect1356"
       is_visible="true"
       lpeversion="1"
       steps="1"
       threshold="0.000408163"
       smooth_angles="360"
       helper_size="0"
       simplify_individual_paths="false"
       simplify_just_coalesce="false" />
    <inkscape:path-effect
       effect="simplify"
       id="path-effect1352"
       is_visible="true"
       lpeversion="1"
       steps="1"
       threshold="0.000408163"
       smooth_angles="360"
       helper_size="0"
       simplify_individual_paths="false"
       simplify_just_coalesce="false" />
    <inkscape:path-effect
       effect="simplify"
       id="path-effect1348"
       is_visible="true"
       lpeversion="1"
       steps="1"
       threshold="0.000408163"
       smooth_angles="360"
       helper_size="0"
       simplify_individual_paths="false"
       simplify_just_coalesce="false" />
  </defs>
  <g
     inkscape:label="Layer 1"
     inkscape:groupmode="layer"
     id="layer1">
    <path
       style="font-variation-settings:normal;opacity:0.99;vector-effect:none;fill:#000000;fill-opacity:1;stroke:#000000;stroke-width:7.9375;stroke-linecap:square;stroke-linejoin:miter;stroke-miterlimit:4;stroke-dasharray:none;stroke-dashoffset:1;stroke-opacity:1;paint-order:stroke fill markers;stop-color:#000000;stop-opacity:1"
       d="m 106.97718,15.081405 c 2.41029,-2.987295 -5.94519,5.980188 -7.418746,7.533812 -33.40549,35.220603 -48.395243,54.931816 -73.962431,96.821843 -7.427321,12.47086 -13.28896,26.50412 -17.3205629,42.3636 -2.0154636,13.55638 -3.8379137,27.39513 -1.1462138,40.95148 1.642127,13.17926 5.5537547,24.09146 11.2601777,33.89087 6.282516,12.84705 15.363158,23.95773 26.055449,33.04363 10.242548,6.96028 20.010108,14.06688 36.169415,19.20482 14.546812,4.33185 29.441392,6.34998 45.339112,1.69455 18.6555,-6.10908 32.84493,-14.45912 47.12212,-27.11271 11.39026,-11.43844 20.15148,-24.38298 25.47142,-44.62298 4.96601,-19.35996 7.45788,-38.0639 3.3113,-57.04966 -4.70531,-20.98419 -16.11342,-37.12141 -28.52801,-52.53087 l -33.87697,-34.314502 -6.36785,-5.789692 c -7.0509,-4.243183 -8.22551,2.038769 -11.20744,5.083632 L 67.878559,161.80066 c -1.942227,4.66842 -3.303097,11.26465 -0.636783,16.66304 l 3.056568,4.51878 c 2.632625,3.08231 4.80088,3.59568 8.787638,4.8012 l 19.867692,1.12968 -4.461233,36.86292 48.781519,-46.46532 c 1.44663,-3.07822 0.77601,-5.83113 -0.12726,-10.02606 -1.14985,-3.26833 -2.83753,-6.68015 -6.11314,-10.16726 -1.40359,-1.67494 -3.56952,-2.22281 -5.98578,-2.40061 h -21.90542 l 26.49027,-40.10421 30.5657,42.36361 c 6.44273,13.06607 9.50813,26.85227 7.13199,41.79877 -2.91722,13.05154 -5.48028,25.53933 -13.81107,36.7151 -9.32876,14.67228 -30.54537,23.66956 -51.69946,25.95462 -21.322857,-0.01 -41.065198,-6.59066 -54.925563,-26.1827 -10.336794,-15.25202 -17.075156,-35.59313 -16.6002,-60.21066 1.679839,-19.04476 11.78864,-38.3565 19.833055,-57.4733 C 72.258023,84.346574 89.486814,49.913696 106.97718,15.081405 Z"
       id="path1411"
       sodipodi:nodetypes="cscccccccccccccccccccccccccccccccccc" />
  </g>
</svg>
