<svg height="512pt" viewBox="0 -40 512 511" width="512pt" xmlns="http://www.w3.org/2000/svg"><path d="m512 200.503906h-25.214844c-24.75-96.816406-48.769531-138.359375-79.632812-138.359375-30.863282 0-54.882813 41.542969-79.632813 138.359375h-112.449219c-24.75-96.816406-48.773437-138.359375-79.636718-138.359375-30.863282 0-54.882813 41.542969-79.632813 138.359375h-25.800781v-200.003906h-30v430.003906h30v-200h161.660156c24.75 96.8125 48.769532 138.355469 79.632813 138.355469s54.886719-41.542969 79.636719-138.355469h161.070312zm-104.847656-108.359375c.210937 0 20.296875 1.324219 48.628906 108.355469h-97.253906c28.332031-107.03125 48.414062-108.355469 48.625-108.355469zm-271.71875 0c.210937 0 20.296875 1.324219 48.628906 108.355469h-97.253906c28.332031-107.03125 48.417968-108.355469 48.625-108.355469zm135.859375 246.714844c-.210938 0-20.292969-1.324219-48.625-108.355469h97.253906c-28.332031 107.03125-48.417969 108.355469-48.628906 108.355469zm0 0"/></svg>